<svg width="16" height="16" viewBox="0 0 100 167" fill="none" xmlns="http://www.w3.org/2000/svg">
<path d="M56.25 118.65C56.25 108.35 55.75 101.45 54.75 97.95C53.75 94.35 51.8 92.55 48.9 92.55C46 92.55 43.4 94.35 41.1 97.95C38.8 101.55 37.65 106.5 37.65 112.8V140.7C37.65 145 38.5 148.65 40.2 151.65C42 154.65 44.5 156.15 47.7 156.15C51 156.15 53.25 153.95 54.45 149.55C55.65 145.15 56.25 137.45 56.25 126.45V118.65ZM37.65 46.5V99C41.45 90.4 47.95 86.1 57.15 86.1C75.85 86.1 85.2 98.55 85.2 123.45C85.2 136.15 82.6 145.5 77.4 151.5C72.3 157.5 64.6 160.5 54.3 160.5C49.1 160.5 45.1 159.7 42.3 158.1C39.6 156.5 37.75 153.85 36.75 150.15L35.7 159H1.5V156.3H9.75V49.2H1.5V46.5H37.65Z" fill="white"/>
<path d="M37.1368 25.4573C37.1368 33.8931 30.209 40.7317 21.6631 40.7317C13.1173 40.7317 6.18945 33.8931 6.18945 25.4573C6.18945 17.0215 13.1173 10.1829 21.6631 10.1829C30.209 10.1829 37.1368 17.0215 37.1368 25.4573Z" fill="#6C4AB6"/>
</svg>
