<svg width="75" height="75" viewBox="0 0 75 75" fill="none" xmlns="http://www.w3.org/2000/svg">
<path fill-rule="evenodd" clip-rule="evenodd" d="M49.4394 46.8893L42.0181 68.7431C41.4363 70.4613 40.0062 71.7688 38.245 72.195C36.465 72.6275 34.6044 72.1044 33.3231 70.8231L20.9537 58.4537C20.3381 57.8381 20.2643 56.8644 20.7749 56.1625L27.2712 47.2462L18.3555 53.7431C17.6537 54.2537 16.6799 54.1799 16.0643 53.5643L3.69428 41.1943C2.41303 39.913 1.88989 38.0524 2.32239 36.2724C2.74863 34.5112 4.05615 33.0812 5.77428 32.4993C16.2162 28.9537 39.2561 21.1312 50.6324 17.27C52.5268 16.6268 54.6093 17.1093 56.0087 18.5087C57.4087 19.9087 57.8905 21.9906 57.2474 23.885L56.8212 25.1462C60.2106 24.9606 63.6625 26.1625 66.25 28.75C71.0794 33.5794 71.0812 41.4188 66.25 46.25C61.6437 50.8563 54.2963 51.0712 49.4394 46.8893ZM51.25 31.25C54.7 27.8 60.3006 27.8006 63.75 31.25C67.1994 34.6994 67.2 40.3 63.75 43.75C60.3 47.2 54.6994 47.1994 51.25 43.75C47.8006 40.3006 47.8 34.7 51.25 31.25ZM52.775 26.0625L53.8994 22.7493C54.1094 22.1343 53.9612 21.4612 53.5087 21.0087C53.0568 20.5568 52.3831 20.408 51.7681 20.618C40.3925 24.4799 17.3518 32.3018 6.91677 35.8418C6.33927 36.0393 5.90307 36.5155 5.75744 37.1074C5.61807 37.6805 5.78116 38.2812 6.19428 38.6943L17.4949 49.9949L34.2862 37.7612C34.9881 37.2506 35.9619 37.3243 36.5775 37.9399C37.1931 38.5556 37.2668 39.5293 36.7562 40.2312L24.5225 57.0225L35.8231 68.3231C36.2362 68.7362 36.8369 68.8993 37.41 68.76C38.0019 68.6143 38.4781 68.1781 38.6762 67.6013L46.7875 43.7C44.0443 38.9694 44.7 32.8 48.75 28.75C49.9375 27.5625 51.3131 26.6631 52.775 26.0625ZM60.6225 35.735L58.2325 35.7325L55 32.5C54.31 31.81 53.1875 31.8125 52.5 32.5C51.8125 33.1875 51.81 34.31 52.5 35L56.25 38.75C56.5812 39.0812 57.0306 39.2681 57.5025 39.265L60.6275 39.265C61.6031 39.2656 62.3906 38.4781 62.39 37.5025C62.39 36.5275 61.5975 35.735 60.6225 35.735Z" fill="#FF4136"/>
</svg>
